# xmcd
#
# Track frame offsets: 
#        182
#        18217
#        60265
#        80732
#        108282
#        123920
#        143320
#        167867
#        181052
#        195222
#        208915
#        229442
#        245007
#        262795
#        280927
#
# Disc length: 3981 seconds
#
# Revision: 2
# Processed by: cddbd v1.5.2PL0 Copyright (c) Steve Scherf et al.
# Submitted via: ExactAudioCopy v0.99pb5
#
DISCID=c20f8b0f
DTITLE=Melvin Sparks - Texas Twister and '75
DYEAR=1995
DGENRE=Jazz+Funk
TTITLE0=Whip! Whop!
TTITLE1=Gathering Together
TTITLE2=Judy's Groove
TTITLE3=Texas Twister
TTITLE4=Ain't No Woman (Like The One I Got)
TTITLE5=I Want To Talk About You
TTITLE6=Star In The Crescent
TTITLE7=I've Got To Have You (feat. Jimmy Scott On Vocal)
TTITLE8=Mockingbird
TTITLE9=Looking For A Love
TTITLE10=Get Ya Some
TTITLE11=Get Down With The Get Down
TTITLE12=Bump and Stomp
TTITLE13=In The Morning
TTITLE14=If You Want My Love (feat. Jimmy Scott On Vocal)
EXTD=
EXTT0=
EXTT1=
EXTT2=
EXTT3=
EXTT4=
EXTT5=
EXTT6=
EXTT7=
EXTT8=
EXTT9=
EXTT10=
EXTT11=
EXTT12=
EXTT13=
EXTT14=
PLAYORDER=
